<?xml version="1.0" encoding="UTF-8" standalone="no"?>
<svg
   xmlns:dc="http://purl.org/dc/elements/1.1/"
   xmlns:cc="http://creativecommons.org/ns#"
   xmlns:rdf="http://www.w3.org/1999/02/22-rdf-syntax-ns#"
   xmlns:svg="http://www.w3.org/2000/svg"
   xmlns="http://www.w3.org/2000/svg"
   xmlns:sodipodi="http://sodipodi.sourceforge.net/DTD/sodipodi-0.dtd"
   xmlns:inkscape="http://www.inkscape.org/namespaces/inkscape"
   viewBox="0 0 182 44.999996"
   height="45"
   width="182"
   xml:space="preserve"
   id="svg2"
   version="1.1"
   inkscape:version="0.91 r13725"
   sodipodi:docname="logo.svg"><sodipodi:namedview
     pagecolor="#ffffff"
     bordercolor="#666666"
     borderopacity="1"
     objecttolerance="10"
     gridtolerance="10"
     guidetolerance="10"
     inkscape:pageopacity="0"
     inkscape:pageshadow="2"
     inkscape:window-width="998"
     inkscape:window-height="776"
     id="namedview4151"
     showgrid="false"
     fit-margin-top="1.21964"
     fit-margin-left="1"
     fit-margin-right="1"
     fit-margin-bottom="0.9"
     inkscape:zoom="4.9718443"
     inkscape:cx="105.97945"
     inkscape:cy="35.50665"
     inkscape:window-x="143"
     inkscape:window-y="96"
     inkscape:window-maximized="0"
     inkscape:current-layer="g10" /><metadata
     id="metadata8"><rdf:RDF><cc:Work
         rdf:about=""><dc:format>image/svg+xml</dc:format><dc:type
           rdf:resource="http://purl.org/dc/dcmitype/StillImage" /><dc:title></dc:title></cc:Work></rdf:RDF></metadata><defs
     id="defs6" /><g
     transform="matrix(1.3333333,0,0,-1.3333333,-0.99999292,160.01551)"
     id="g10"><path
       inkscape:connector-curvature="0"
       d="m 15.040757,112.67001 -0.445578,0 c -0.52224,0 -0.942512,-0.38926 -0.942512,-0.86585 l 0,-3.66982 2.333827,0 0,3.66982 c -0.0032,0.47659 -0.423498,0.86585 -0.945737,0.86585"
       style="fill:#ffffff;fill-opacity:1;fill-rule:nonzero;stroke:#f00000;stroke-width:0.02480947;stroke-opacity:0"
       id="path16" /><path
       inkscape:connector-curvature="0"
       d="m 21.297706,112.67001 -0.444834,0 c -0.522983,0 -0.946481,-0.38926 -0.946481,-0.86585 l 0,-3.66982 2.333827,0 0,3.66982 c 0,0.47659 -0.420273,0.86585 -0.942512,0.86585"
       style="fill:#ffffff;fill-opacity:1;fill-rule:nonzero;stroke:#f00000;stroke-width:0.02480947;stroke-opacity:0"
       id="path18" /><path
       inkscape:connector-curvature="0"
       d="m 17.946939,119.0845 c -9.0616604,0 -16.4345395,-7.37288 -16.4345395,-16.4338 0,-4.374897 1.6999451,-8.492774 4.7857473,-11.593462 1.8264734,-1.836149 4.0868642,-3.230689 6.5385362,-4.031539 0.163743,-0.05235 0.330959,-0.07666 0.491476,-0.07666 0.667127,0 1.286123,0.423249 1.505439,1.091368 0.27216,0.83087 -0.182102,1.724507 -1.013963,1.993441 -1.975331,0.646535 -3.802796,1.774374 -5.2772233,3.255251 -2.4921115,2.504765 -3.8643235,5.827994 -3.8643235,9.361601 0,7.31756 5.9537778,13.26811 13.2688508,13.26811 7.317554,0 13.268106,-5.95055 13.268106,-13.26811 0,-3.54626 -1.378663,-6.875939 -3.882683,-9.37996 -0.961615,-0.86585 -3.34779,-2.599784 -4.779297,-2.599784 -0.736097,0 -1.286123,0.231968 -1.731701,0.729646 -1.134041,1.260818 -1.381887,3.81793 -1.372212,5.595529 2.748394,0.139181 4.933612,2.40503 4.933612,5.184439 l 0,4.9274 -12.872395,0 0,-4.9274 c 0,-2.726317 2.098881,-4.958921 4.769869,-5.175012 -0.01513,-2.120961 0.281588,-5.598505 2.179512,-7.713265 1.044727,-1.168774 2.460604,-1.787026 4.093315,-1.787026 3.063474,0 6.54722,3.094486 6.934248,3.44678 l 0.05235,0.04664 c 3.122024,3.107138 4.841073,7.246103 4.841073,11.652013 0,9.06092 -7.37288,16.4338 -16.433795,16.4338"
       style="fill:#ffffff;fill-opacity:1;fill-rule:nonzero;stroke:#f00000;stroke-width:0.02480947;stroke-opacity:0"
       id="path20" /><g
       id="g4216"
       style="fill:#ffffff;fill-opacity:1;stroke:#f00000;stroke-opacity:0"><path
         id="path22"
         style="fill:#ffffff;fill-opacity:1;fill-rule:nonzero;stroke:#f00000;stroke-width:0.02480947;stroke-opacity:0"
         d="m 49.370369,109.46984 0,-17.746219 -4.839832,0 0,17.746219 -5.646636,0 0,4.83983 16.132856,0 0,-4.83983"
         inkscape:connector-curvature="0" /><path
         id="path24"
         style="fill:#ffffff;fill-opacity:1;fill-rule:nonzero;stroke:#f00000;stroke-width:0.02480947;stroke-opacity:0"
         d="m 69.939655,99.790173 -2.823318,-8.066304 -4.839832,0 -5.646388,16.132611 5.646388,0 2.419916,-8.872863 2.419916,8.872863 5.646388,0 2.419916,-8.872863 2.420164,8.872863 5.646388,0 -5.646388,-16.132611 -4.84008,0"
         inkscape:connector-curvature="0" /><path
         id="path26"
         style="fill:#ffffff;fill-opacity:1;fill-rule:nonzero;stroke:#f00000;stroke-width:0.02480947;stroke-opacity:0"
         d="m 89.702385,91.723621 -4.839832,0 0,16.132859 4.839832,0 z m -0.709799,21.876249 c 0.473117,-0.47361 0.709799,-1.04349 0.709799,-1.71012 0,-0.66712 -0.236682,-1.237 -0.709799,-1.71011 -0.473613,-0.47337 -1.043486,-0.7098 -1.710117,-0.7098 -0.667127,0 -1.237,0.23643 -1.710117,0.7098 -0.473365,0.47311 -0.709799,1.04299 -0.709799,1.71011 0,0.66663 0.236434,1.23651 0.709799,1.71012 0.473117,0.47312 1.04299,0.7098 1.710117,0.7098 0.666631,0 1.236504,-0.23668 1.710117,-0.7098"
         inkscape:connector-curvature="0" /><path
         id="path28"
         style="fill:#ffffff;fill-opacity:1;fill-rule:nonzero;stroke:#f00000;stroke-width:0.02480947;stroke-opacity:0"
         d="m 92.928857,107.85648 0,6.45319 4.839832,0 0,-6.45319 3.226721,0 0,-4.83984 -3.226721,0 0,-3.226467 c 0,-0.892893 0.314832,-1.6538 0.943752,-2.28272 0.629417,-0.629416 1.390079,-0.944 2.282969,-0.944 l 0,-4.839832 c -2.226403,0 -4.127553,0.787949 -5.702955,2.36335 -1.575897,1.575402 -2.363598,3.4768 -2.363598,5.703202 l 0,3.226467 -1.613112,0 0,4.83984"
         inkscape:connector-curvature="0" /><path
         id="path30"
         style="fill:#ffffff;fill-opacity:1;fill-rule:nonzero;stroke:#f00000;stroke-width:0.02480947;stroke-opacity:0"
         d="m 113.82091,99.048121 4.80758,-0.645294 c -0.25801,-1.635192 -1.00577,-3.070917 -2.24228,-4.307421 -1.5811,-1.581356 -3.48498,-2.371537 -5.71114,-2.371537 -2.2264,0 -4.12755,0.787701 -5.70295,2.363102 -1.57565,1.57565 -2.36335,3.4768 -2.36335,5.703202 0,2.226397 0.7877,4.127057 2.36335,5.702957 1.5754,1.5754 3.47655,2.36335 5.70295,2.36335 2.22616,0 4.13004,-0.78522 5.71114,-2.35541 1.23651,-1.24767 1.98427,-2.68861 2.24228,-4.32355 l -4.80758,-0.64505 c -0.12901,0.58054 -0.41407,1.09683 -0.85493,1.54861 -0.63487,0.62371 -1.39851,0.93556 -2.29091,0.93556 -0.89289,0 -1.6538,-0.31458 -2.28272,-0.94375 -0.62916,-0.62917 -0.944,-1.39007 -0.944,-2.282717 0,-0.892893 0.31484,-1.653552 0.944,-2.28272 0.62892,-0.629168 1.38983,-0.944 2.28272,-0.944 0.8924,0 1.65604,0.317313 2.29091,0.951939 0.44086,0.440864 0.72592,0.951692 0.85493,1.532729"
         inkscape:connector-curvature="0" /><path
         id="path32"
         style="fill:#ffffff;fill-opacity:1;fill-rule:nonzero;stroke:#f00000;stroke-width:0.02480947;stroke-opacity:0"
         d="m 125.19457,99.790173 0,-8.066304 -4.83983,0 0,22.585801 4.83983,0 0,-7.09824 c 0.9894,0.42995 2.06514,0.64505 3.22647,0.64505 2.22665,0 4.1273,-0.78795 5.7032,-2.36335 1.57565,-1.5759 2.36335,-3.47656 2.36335,-5.702957 l 0,-8.066304 -4.83958,0 0,8.066304 c 0,0.892647 -0.31483,1.653547 -0.94375,2.282717 -0.62942,0.62917 -1.39057,0.94375 -2.28322,0.94375 -0.89289,0 -1.65355,-0.31458 -2.28272,-0.94375 -0.62917,-0.62917 -0.94375,-1.39007 -0.94375,-2.282717"
         inkscape:connector-curvature="0" /></g></g></svg>