<svg xmlns:svg="http://www.w3.org/2000/svg" xmlns="http://www.w3.org/2000/svg" viewBox="0 0 182 45" height="45" width="182" xml:space="preserve" version="1.1"><style>* {fill:#c1272d;}</style><g transform="matrix(1.3333333,0,0,-1.3333333,-0.99999292,160.01551)"><path d="m15 112.7-0.4 0c-0.5 0-0.9-0.4-0.9-0.9l0-3.7 2.3 0 0 3.7c0 0.5-0.4 0.9-0.9 0.9M21.3 112.7l-0.4 0M21.3 112.7l-0.4 0c-0.5 0-0.9-0.4-0.9-0.9l0-3.7 2.3 0 0 3.7c0 0.5-0.4 0.9-0.9 0.9M17.9 119.1c-9.1 0-16.4-7.4-16.4-16.4 0-4.4 1.7-8.5 4.8-11.6 1.8-1.8 4.1-3.2 6.5-4 0.2-0.1 0.3-0.1 0.5-0.1 0.7 0 1.3 0.4 1.5 1.1 0.3 0.8-0.2 1.7-1 2-2 0.6-3.8 1.8-5.3 3.3-2.5 2.5-3.9 5.8-3.9 9.4 0 7.3 6 13.3 13.3 13.3 7.3 0 13.3-6 13.3-13.3 0-3.5-1.4-6.9-3.9-9.4-1-0.9-3.3-2.6-4.8-2.6-0.7 0-1.3 0.2-1.7 0.7-1.1 1.3-1.4 3.8-1.4 5.6 2.7 0.1 4.9 2.4 4.9 5.2l0 4.9-12.9 0 0-4.9c0-2.7 2.1-5 4.8-5.2 0-2.1 0.3-5.6 2.2-7.7 1-1.2 2.5-1.8 4.1-1.8 3.1 0 6.5 3.1 6.9 3.4l0.1 0c3.1 3.1 4.8 7.2 4.8 11.7 0 9.1-7.4 16.4-16.4 16.4" /><path d="m49.4 109.5 0-17.7-4.8 0 0 17.7-5.6 0 0 4.8 16.1 0 0-4.8M69.9 99.8l-2.8-8.1-4.8 0-5.6 16.1 5.6 0 2.4-8.9 2.4 8.9 5.6 0 2.4-8.9 2.4 8.9 5.6 0-5.6-16.1-4.8 0M69.9 99.8l-2.8-8.1-4.8 0-5.6 16.1 5.6 0 2.4-8.9 2.4 8.9 5.6 0 2.4-8.9 2.4 8.9 5.6 0-5.6-16.1-4.8 0M89.7 91.7l-4.8 0 0 16.1 4.8 0zm-0.7 21.9c0.5-0.5 0.7-1 0.7-1.7 0-0.7-0.2-1.2-0.7-1.7-0.5-0.5-1-0.7-1.7-0.7-0.7 0-1.2 0.2-1.7 0.7-0.5 0.5-0.7 1-0.7 1.7 0 0.7 0.2 1.2 0.7 1.7 0.5 0.5 1 0.7 1.7 0.7 0.7 0 1.2-0.2 1.7-0.7M92.9 107.9l0 6.5 4.8 0 0-6.5 3.2 0 0-4.8-3.2 0 0-3.2c0-0.9 0.3-1.7 0.9-2.3 0.6-0.6 1.4-0.9 2.3-0.9l0-4.8c-2.2 0-4.1 0.8-5.7 2.4-1.6 1.6-2.4 3.5-2.4 5.7l0 3.2-1.6 0 0 4.8M113.8 99l4.8-0.6c-0.3-1.6-1-3.1-2.2-4.3-1.6-1.6-3.5-2.4-5.7-2.4-2.2 0-4.1 0.8-5.7 2.4-1.6 1.6-2.4 3.5-2.4 5.7 0 2.2 0.8 4.1 2.4 5.7 1.6 1.6 3.5 2.4 5.7 2.4 2.2 0 4.1-0.8 5.7-2.4 1.2-1.2 2-2.7 2.2-4.3l-4.8-0.6c-0.1 0.6-0.4 1.1-0.9 1.5-0.6 0.6-1.4 0.9-2.3 0.9-0.9 0-1.7-0.3-2.3-0.9-0.6-0.6-0.9-1.4-0.9-2.3 0-0.9 0.3-1.7 0.9-2.3 0.6-0.6 1.4-0.9 2.3-0.9 0.9 0 1.7 0.3 2.3 1 0.4 0.4 0.7 1 0.9 1.5M125.2 99.8l0-8.1-4.8 0 0 22.6 4.8 0 0-7.1c1 0.4 2.1 0.6 3.2 0.6 2.2 0 4.1-0.8 5.7-2.4 1.6-1.6 2.4-3.5 2.4-5.7l0-8.1-4.8 0 0 8.1c0 0.9-0.3 1.7-0.9 2.3-0.6 0.6-1.4 0.9-2.3 0.9-0.9 0-1.7-0.3-2.3-0.9-0.6-0.6-0.9-1.4-0.9-2.3" /></g></svg>